<svg width="58" height="49" viewBox="0 0 58 49" fill="none" xmlns="http://www.w3.org/2000/svg">
<mask id="mask0_54169_59419" style="mask-type:luminance" maskUnits="userSpaceOnUse" x="0" y="0" width="58" height="49">
<path d="M57.8734 0.0986328H0.453125V48.1584H57.8734V0.0986328Z" fill="white"/>
</mask>
<g mask="url(#mask0_54169_59419)">
<path d="M16.2479 14.6644C13.2211 14.1654 10.675 11.0784 10.675 7.95454C10.675 5.34823 12.402 3.51827 14.8591 3.51827C15.144 3.51827 15.4288 3.53677 15.7137 3.59223C18.7405 4.10979 21.2866 7.17823 21.2866 10.3021C21.2866 13.2042 19.0966 15.145 16.2301 14.6644M24.4559 11.596C24.5093 11.1709 24.5805 10.7457 24.5805 10.3021C24.5805 5.44069 20.9127 1.00438 16.2301 0.228031C11.2803 -0.603773 7.36328 3.00071 7.36328 7.97305C7.36328 12.9454 11.1023 17.2893 15.7137 18.0471C16.1944 18.1211 16.6396 18.158 17.1025 18.158C18.9542 18.158 20.5922 17.4926 21.8742 16.402C21.8742 16.402 24.1175 14.4056 24.4736 11.596" fill="#DB334A"/>
<path d="M39.5868 25.8103L27.9959 15.3851L51.7475 19.3038L39.6046 25.8103H39.5868ZM24.4706 11.5957C24.1145 14.3869 21.8711 16.4017 21.8711 16.4017V21.5773L24.9335 22.3168V16.8453L39.1417 29.6181L54.8099 21.2262V39.2855L31.4322 35.4223V38.6386L57.8545 43.0009V17.1226L24.4528 11.5957H24.4706Z" fill="#9C9CA1"/>
<path d="M28.1573 34.8863V44.1471L3.747 40.0435V27.2338C3.747 24.3132 5.91919 22.3723 8.80356 22.8529L21.8722 25.0525L22.5488 25.1634C23.4034 25.3113 24.1868 25.6625 24.9168 26.1616C26.7863 27.4186 28.1395 29.6367 28.1395 31.8918V34.8863H28.1573ZM31.4512 31.8918C31.4512 27.6774 28.7093 23.8141 24.9347 22.3169L21.8722 21.5774L9.33769 19.4702C4.38797 18.6384 0.453125 22.2614 0.453125 27.2153V42.9456L31.4512 48.1582V31.8733V31.8918Z" fill="#DB334A"/>
</g>
</svg>
