<svg width="46" height="44" viewBox="0 0 46 44" fill="none" xmlns="http://www.w3.org/2000/svg">
<path d="M32.2409 0.549805L0.886719 5.17093V43.0642L32.2409 38.3876V22.2691H32.1341L28.4485 25.8366V35.2452L4.67913 38.7943V8.31327L28.4485 4.80122V17.3892L32.2409 13.7108V0.549805Z" fill="#9C9EA1"/>
<path d="M22.1836 18.3499V18.479L22.3438 18.3315L22.1836 18.3499Z" fill="#9C9EA1"/>
<path d="M8.29297 11.8993V15.5407L24.7446 13.3781L24.6911 9.68115L8.29297 11.8993Z" fill="#9C9EA1"/>
<path d="M32.0251 12.8604L28.9449 15.8364V15.8549L23.9596 20.6608L19.2413 25.245L17.7813 31.5482L17.6211 32.2692L24.8854 30.698L28.9449 26.7608L31.9361 23.8772H31.9183L45.717 10.4759L40.0907 5.02295L32.0251 12.8604Z" fill="#DB334A"/>
<path d="M8.29297 30.1989V33.8219L16.4832 32.6574V28.9604L8.29297 30.1989Z" fill="#9C9EA1"/>
<path d="M8.29297 24.376L18.9402 22.8603V19.2373L8.29297 20.7345V24.376Z" fill="#9C9EA1"/>
</svg>
