<svg width="52" height="49" viewBox="0 0 52 49" fill="none" xmlns="http://www.w3.org/2000/svg">
<mask id="mask0_54186_59514" style="mask-type:luminance" maskUnits="userSpaceOnUse" x="0" y="0" width="52" height="49">
<path d="M51.4797 0.0239258H0.59375V48.6772H51.4797V0.0239258Z" fill="white"/>
</mask>
<g mask="url(#mask0_54186_59514)">
<path d="M51.3551 37.4341L40.423 8.16926L39.2301 10.775L27.6036 7.40392V0.0239258H24.7014V6.5657L13.4666 3.30392L12.3449 0.297259L0.754 25.8266L0.59375 26.5555C0.59375 33.4435 5.59689 39.9488 11.7573 41.0786C12.3983 41.1879 13.0215 41.2426 13.6268 41.2426C16.0305 41.2426 18.2383 40.3679 20.0009 38.6915C22.1019 36.7052 23.2592 33.8261 23.3482 30.5826C23.3482 30.5461 23.4194 30.5097 23.4194 30.455C23.4194 30.4186 23.3838 30.3639 23.366 30.3275C23.366 30.2728 23.366 30.2364 23.366 30.1817H23.2948C23.2414 30.0177 23.2414 29.5621 23.2414 29.5621L14.8375 7.0577L24.6658 9.91859V24.0226H27.5679V10.7568L37.8591 13.7453L28.7965 33.6986L28.6362 34.4275C28.6362 34.8284 28.6362 36.3772 28.8321 36.5959C29.7401 42.6275 34.2981 47.9484 39.7998 48.9506C40.423 49.0599 41.0639 49.1328 41.6693 49.1328C44.0729 49.1328 46.2985 48.2581 48.0612 46.5817C50.0375 44.7048 51.1592 42.0079 51.3551 38.9466M40.2805 45.7617C36.6662 45.1057 33.5681 42.0808 32.2328 38.3452C34.2625 39.0012 36.9332 39.5479 39.9244 39.8577C43.2183 40.2039 46.2095 40.1857 48.3639 39.8941C48.0434 41.5888 47.3134 43.0466 46.1739 44.1217C44.6249 45.5977 42.5239 46.1808 40.2627 45.7799M47.5805 35.8488C45.622 35.2657 43.1293 34.7737 40.3696 34.4821C36.9332 34.1177 33.8708 34.1541 31.6986 34.4821L40.1381 15.8955L47.5805 35.8488ZM12.2025 37.8897C8.55248 37.2155 5.43665 34.1541 4.1369 30.3821C6.13104 31.0381 8.83735 31.603 11.8642 31.9128C15.2115 32.259 18.2026 32.2408 20.3214 31.9128C20.0187 33.6439 19.2709 35.1564 18.1136 36.2497C16.5646 37.7257 14.4637 38.3088 12.2025 37.8897ZM12.2915 26.6648C8.80174 26.3004 5.68592 26.355 3.56715 26.7195L12.06 8.02348L19.538 28.0679C17.5973 27.4666 15.0868 26.9564 12.2915 26.6648Z" fill="#9C9EA1"/>
</g>
<mask id="mask1_54186_59514" style="mask-type:luminance" maskUnits="userSpaceOnUse" x="0" y="0" width="52" height="49">
<path d="M51.4797 0.0239258H0.59375V48.6772H51.4797V0.0239258Z" fill="white"/>
</mask>
<g mask="url(#mask1_54186_59514)">
<path d="M23.3838 30.7099C23.3838 32.441 18.2917 33.1334 11.9888 32.2588C5.70371 31.3841 0.59375 29.2703 0.59375 27.5392C0.59375 25.8081 5.68591 25.1157 11.9888 25.9903C18.2739 26.865 23.3838 28.9788 23.3838 30.7099Z" fill="#DB334A"/>
<path d="M51.4073 38.2543C51.4073 39.9854 46.3151 40.6779 40.0122 39.8032C33.7272 38.9285 28.6172 36.8148 28.6172 35.0837C28.6172 33.3525 33.7093 32.6601 40.0122 33.5348C46.2973 34.4094 51.4073 36.5232 51.4073 38.2543Z" fill="#DB334A"/>
</g>
</svg>
