<svg width="44" height="59" viewBox="0 0 44 59" fill="none" xmlns="http://www.w3.org/2000/svg">
<mask id="mask0_54169_59459" style="mask-type:luminance" maskUnits="userSpaceOnUse" x="0" y="0" width="44" height="59">
<path d="M43.3411 0.275879H0.734375V58.3628H43.3411V0.275879Z" fill="white"/>
</mask>
<g mask="url(#mask0_54169_59459)">
<path d="M16.6179 33.0647V32.7666C16.4755 32.8894 16.2974 32.977 16.1016 32.9946C16.2084 32.9946 16.2974 33.0297 16.3864 33.0647H16.6179Z" fill="#9C9EA1"/>
<path d="M14.3924 56.2633C10.6356 56.2633 6.66515 55.8959 4.9737 55.7384L4.27931 55.6684C3.72736 55.7034 3.22883 55.371 3.03298 54.8636C1.53738 51.1894 8.99757 38.6098 12.2024 34.7956C12.1312 34.9881 12.0778 35.128 12.0066 35.3205C10.7958 38.6098 9.14001 43.1237 11.8463 44.8209L12.2736 44.156L12.701 43.4912C12.5763 43.3862 12.4695 43.2812 12.3805 43.1412C11.5436 42.0215 12.2202 39.5021 12.9858 37.2801C13.1639 36.7727 13.3419 36.2828 13.5022 35.8454C13.6624 35.4255 13.787 35.0581 13.9117 34.6906H14.7663C14.7663 34.6906 14.9087 34.8831 14.98 35.0056C15.2826 35.443 15.6922 36.0903 16.2085 36.8951C16.3331 37.1051 16.4578 37.2976 16.6002 37.5075C17.4192 38.8722 18.3985 40.5868 19.3243 42.4764C20.6419 45.0658 21.6389 47.7777 22.3155 50.5771C22.4402 51.1194 22.5292 51.6443 22.6004 52.1692C22.7072 52.869 22.7606 53.5864 22.7784 54.3037C22.7784 55.2485 20.5707 56.2633 14.3568 56.2633H14.3924ZM31.8411 29.6343V49.8072C29.5086 50.4371 27.105 50.7345 24.7014 50.6645C24.4521 50.6645 24.2206 50.6645 23.9892 50.647C23.6153 48.8974 23.0989 47.1828 22.4402 45.5382C20.8733 41.6891 18.9148 38.0149 16.618 34.5507C16.6002 34.5157 16.5646 34.4807 16.5468 34.4457C16.4578 34.5157 16.3687 34.5507 16.2619 34.5857C16.1907 34.6207 16.1017 34.6381 16.0304 34.6381H10.7068C10.6 34.6381 10.4932 34.6207 10.3863 34.5682C7.00344 39.0297 -0.22529 51.0495 1.55519 55.4585C1.96469 56.5257 2.99737 57.2256 4.15468 57.2606L4.83126 57.3305C6.54051 57.488 10.5466 57.8554 14.3924 57.8554C21.2294 57.8554 24.3987 56.7357 24.3987 54.3387C24.3987 53.6389 24.3453 52.939 24.2384 52.2392C24.3987 52.2392 24.5411 52.2392 24.7014 52.2392C27.4967 52.3792 30.292 51.9767 32.945 51.0844L33.4257 50.8745V31.2089L31.8589 29.6518L31.8411 29.6343Z" fill="#9C9EA1"/>
<path d="M12.664 35.1455L12.5394 35.4954C11.4711 38.3998 10.0289 42.3189 11.7382 44.0335L12.0409 43.5611C12.0409 43.5611 12.0053 43.5261 12.0053 43.5086C11.1684 42.3889 11.3287 40.4993 12.5038 37.1225C12.6819 36.6152 12.8599 36.1253 13.0201 35.6704C13.0914 35.4954 13.1448 35.3204 13.216 35.163H12.664V35.1455ZM10.5453 37.9624C7.01994 43.1937 2.44412 51.9067 3.54802 54.6536C3.61923 54.8286 3.70826 55.0735 4.33143 55.126L5.02581 55.196C6.75287 55.3534 10.6877 55.7209 14.3911 55.7209C20.9255 55.7209 22.2608 54.5836 22.2608 54.3037C22.2608 53.6038 22.1896 52.9215 22.1006 52.2216C22.0293 51.7143 21.9403 51.2069 21.8157 50.682C21.1391 47.9176 20.142 45.2407 18.8601 42.7038C18.0767 41.1116 17.1686 39.4495 16.1538 37.7874C16.0469 37.6124 15.9579 37.455 15.8511 37.2975L15.7621 37.175C15.2635 36.3702 14.854 35.7404 14.5513 35.303L14.4979 35.2155H14.3021L14.0172 36.0203C13.857 36.4752 13.6789 36.9476 13.5009 37.455C12.5038 40.3068 12.2723 42.1089 12.8065 42.8263C12.8599 42.9137 12.9133 42.9837 12.9845 43.0362L13.4475 43.3161L12.0053 45.5381L11.5423 45.2582C9.26334 43.8235 9.63724 40.8317 10.5097 37.9624H10.5453ZM10.6343 35.1455C6.64604 40.4993 0.556818 51.4693 2.07022 55.231C2.40851 56.1058 3.26314 56.6831 4.20679 56.6831L4.88337 56.7531C6.8597 56.9456 10.6699 57.278 14.3911 57.278C20.7652 57.278 23.8632 56.2982 23.8632 54.3037C23.8632 53.6213 23.8098 52.939 23.703 52.2741L23.6318 51.6618H24.7001C27.4242 51.8192 30.1483 51.4343 32.73 50.577L32.8724 50.507V31.4013L32.3739 30.9114V50.1921L31.9822 50.3146C29.6142 50.9619 27.1571 51.2594 24.7001 51.2069H23.5427L23.4537 50.7695C23.0798 49.0549 22.5813 47.3752 21.9225 45.7306C20.4091 42.0214 18.5396 38.4697 16.3318 35.128C16.225 35.163 16.1182 35.1805 16.0113 35.1805H15.7443C16.0113 35.6004 16.314 36.0903 16.6879 36.6502L16.7591 36.7726C16.866 36.9301 16.955 37.0875 17.0796 37.28C18.0945 38.9771 19.0381 40.6567 19.8216 42.2839C21.1569 44.8908 22.1718 47.6552 22.8662 50.4895C22.9908 51.0494 23.0798 51.5743 23.1688 52.1167C23.2757 52.8515 23.3291 53.5863 23.3469 54.3387C23.3469 56.3857 18.4684 56.8231 14.3911 56.8231C10.6343 56.8231 6.66385 56.4557 4.9724 56.2982L4.2424 56.2282C3.4946 56.2282 2.81802 55.7733 2.53315 55.091C0.966328 51.2244 8.01701 39.397 11.2397 35.1805H10.7233C10.7233 35.1805 10.6521 35.1805 10.6165 35.1805M14.3911 58.3978C10.6165 58.3978 6.77068 58.0478 4.91898 57.8904L4.11777 57.8204C2.76461 57.7679 1.57169 56.9281 1.07316 55.6859C-0.885365 50.8744 6.91311 38.3123 9.97553 34.2882L10.2248 33.9558L10.6165 34.1132H12.1299L13.8392 32.1012L13.0736 34.1307H16.0469L16.5099 33.7808L17.0796 34.2882C19.412 37.7874 21.3884 41.4966 22.9552 45.3632C23.5784 46.9203 24.0591 48.5125 24.4508 50.1571H24.7179C26.9435 50.2096 29.1512 49.9646 31.3056 49.4398V28.3745L33.9763 30.9989V51.2419L33.1751 51.5918C30.5044 52.5191 27.6734 52.9215 24.8425 52.799C24.8959 53.3064 24.9315 53.8313 24.9315 54.3562C24.9493 57.9429 19.3052 58.3978 14.3911 58.3978Z" fill="#9C9EA1"/>
<path d="M11.5796 31.3484H12.3986L10.1018 21.1307H12.5766L13.5737 19.5736C13.7696 19.5036 14.4105 19.2586 15.8527 20.4134C16.0486 20.5708 16.2622 20.7458 16.4937 20.9558L16.9922 21.4281L17.2237 21.2357L17.5442 20.9907C17.5442 20.9907 18.1139 20.5358 18.8617 19.801C19.1822 19.8535 19.4849 20.046 19.6629 20.3259C19.9656 20.7458 20.0546 21.2882 19.8766 21.7781C19.0042 24.175 17.9181 26.4845 16.6183 28.6715C15.9417 29.8612 15.372 30.806 15.0337 31.3484H16.0308C16.2444 31.3484 16.4581 31.4359 16.6183 31.5934C16.6361 31.6284 16.6717 31.6458 16.6895 31.6808C18.5768 28.7065 20.1437 25.5397 21.39 22.2505C21.7105 21.2882 21.5502 20.2209 20.9271 19.4161C20.4998 18.8387 19.8588 18.4538 19.1466 18.3488C19.2 18.2964 19.2356 18.2439 19.289 18.2089C22.8144 15.1995 22.6541 8.18363 22.5295 3.54717C22.5295 3.14476 22.5117 2.75985 22.5117 2.39243H25.9302C25.9302 2.75985 25.9302 3.14476 25.9124 3.54717C25.8056 8.18363 25.6453 15.1995 29.1529 18.2089C29.3131 18.3663 29.4733 18.5238 29.6158 18.6813L31.6455 18.6463C31.236 18.0514 30.7553 17.4915 30.2033 17.0191C27.2478 14.4997 27.408 7.92119 27.497 3.58217C27.5148 2.86483 27.5326 2.18248 27.5326 1.60511V0.800293H20.9093V1.58762C20.9093 2.16499 20.9093 2.82984 20.9449 3.56467C21.0517 7.92119 21.1941 14.4822 18.2386 17.0191C17.562 17.5965 16.9922 18.2614 16.5471 19.0137C15.7993 18.4013 14.8556 18.0339 13.8764 17.9639C13.271 17.9464 12.7013 18.1739 12.2918 18.6113L11.6686 19.5736H8.08984L10.7606 31.3659H11.5796V31.3484Z" fill="#9C9EA1"/>
<path d="M15.976 30.824C16.154 30.824 16.3321 30.859 16.5101 30.9115C18.255 28.1296 19.715 25.1728 20.8545 22.0935C21.1215 21.2886 20.9791 20.4138 20.4628 19.7315C20.1245 19.2766 19.6081 18.9617 19.0384 18.8742L17.8633 18.6817L18.7891 17.9294C18.7891 17.9294 18.8781 17.8419 18.9316 17.7894C22.261 14.9376 22.1008 8.07912 21.994 3.53015L21.9584 1.83303H26.4808L26.4452 3.53015C26.3383 8.07912 26.1781 14.9376 29.5076 17.7894C29.6322 17.8944 29.739 18.0169 29.8459 18.1219H30.5581C30.3444 17.8769 30.0951 17.632 29.8459 17.422C26.6944 14.7276 26.8547 8.02663 26.9615 3.58263C26.9793 2.8478 26.9971 2.18295 26.9971 1.60558V1.34314H21.442V1.58808C21.442 2.16545 21.442 2.8303 21.4776 3.54764C21.5845 7.99164 21.7269 14.7276 18.5933 17.4045C17.9701 17.9469 17.436 18.5768 17.0086 19.2766L16.706 19.7665L16.2252 19.4341C14.7296 18.3493 13.3943 18.2093 12.6999 18.9617L11.9877 20.0989H8.78285L11.2043 30.824H11.7206L9.42382 20.6063H12.2726L13.1984 19.1541L13.3587 19.0841C13.5367 19.0142 13.7326 18.9792 13.9284 18.9792C14.7652 19.0666 15.5665 19.4341 16.1718 20.0114C16.3855 20.1689 16.5991 20.3614 16.8484 20.5888L17.0086 20.7288L17.1867 20.5888C17.1867 20.5888 17.7564 20.1339 18.4864 19.4341L18.6467 19.2766H18.8603C19.3589 19.3291 19.804 19.5915 20.0889 20.0114C20.4984 20.5713 20.623 21.2886 20.3915 21.936C19.5191 24.368 18.4152 26.7124 17.0977 28.9344C16.6882 29.6518 16.2965 30.2991 15.9938 30.8065L15.976 30.824ZM16.7416 32.6261L16.1896 31.9263C16.1896 31.9263 16.0828 31.8913 16.0294 31.8913H14.0531L14.5516 31.0864C14.8899 30.5616 15.4596 29.5993 16.1184 28.427C17.4003 26.2575 18.4686 24.0005 19.3411 21.6386C19.4657 21.3061 19.4123 20.9562 19.1986 20.6588C19.1452 20.5713 19.0562 20.5013 18.985 20.4488C18.344 21.0612 17.8633 21.4286 17.8633 21.4286L16.9552 22.146L16.1006 21.3586C15.8869 21.1487 15.6733 20.9737 15.4952 20.8337C14.5872 20.1164 14.1421 20.0464 13.8928 20.0289L12.8601 21.6561H10.7592L13.056 31.8738H10.3319L7.42969 18.9967H11.4001L11.8631 18.2793C12.967 17.0721 14.6228 17.1071 16.4211 18.2268C16.8484 17.6145 17.3469 17.0721 17.9167 16.5822C20.6764 14.2202 20.534 7.79918 20.4272 3.54764C20.4093 2.81281 20.3915 2.14796 20.3915 1.55309V0.275879H28.101V1.58808C28.101 2.16545 28.101 2.8478 28.0654 3.58263C27.9764 7.83418 27.8161 14.2552 30.5759 16.6172C31.1634 17.1246 31.6798 17.702 32.1071 18.3493L32.6768 19.1716L29.4007 19.2241L29.0803 18.8917C28.9912 18.7867 28.9022 18.6992 28.8132 18.6117C25.092 15.4275 25.27 8.27158 25.3769 3.53015V2.91778H23.0623V3.53015C23.1869 8.04413 23.3293 14.7451 20.1601 18.1219C20.6408 18.3493 21.0503 18.6992 21.3708 19.1191C22.083 20.0814 22.2788 21.3061 21.9049 22.4259C20.6586 25.7676 19.074 28.9694 17.1511 31.9787L16.7416 32.6261Z" fill="#9C9EA1"/>
<path d="M17.1504 32.6783C17.3463 32.2759 17.275 31.8035 16.9902 31.4711L16.8833 31.3486C16.6341 31.1037 16.2958 30.9812 15.9397 30.9987H10.7051C10.0285 30.9987 9.47656 31.5411 9.47656 32.2059C9.47656 32.5034 9.58339 32.8008 9.79705 33.0283C9.58339 33.2557 9.47656 33.5356 9.47656 33.8331C9.47656 34.4979 10.0107 35.0403 10.6873 35.0403H16.0287C16.1533 35.0403 16.2602 35.0228 16.367 34.9703H16.4026C18.646 38.3471 20.5511 41.9338 22.0823 45.6954L25.305 48.9147L32.3735 41.9687L22.8835 32.6258L17.1504 32.6958V32.6783Z" fill="#DB334A"/>
</g>
<path d="M26.8742 18.3315L26.7852 25.19L36.2751 34.5329L43.0765 27.8494L43.3614 27.587L33.9605 18.349L33.8536 18.2266L26.8742 18.3315Z" fill="#DB334A"/>
</svg>
