<svg width="59" height="46" viewBox="0 0 59 46" fill="none" xmlns="http://www.w3.org/2000/svg">
<mask id="mask0_54169_59405" style="mask-type:luminance" maskUnits="userSpaceOnUse" x="0" y="0" width="59" height="46">
<path d="M58.7996 0.62793H0.738281V45.305H58.7996V0.62793Z" fill="white"/>
</mask>
<g mask="url(#mask0_54169_59405)">
<path d="M50.1091 29.9073L45.8716 25.0273L38.9456 28.1697L35.4202 23.9738L33.6041 25.5634C33.0522 26.044 32.4468 26.5061 31.8415 26.8758L30.4705 24.7871C30.9868 24.4728 31.4676 24.1031 31.9127 23.7149L35.7051 20.3878L39.6577 25.1013L46.5482 21.959L50.7501 26.8019L55.3793 24.5468L55.8779 21.9035L35.7941 16.0069L35.0819 12.6797C34.0671 9.18612 31.2895 6.41344 27.6395 5.34133C23.5801 4.13984 19.0933 5.35982 16.2623 8.46522L14.375 6.80163C17.8825 2.99382 23.3842 1.49656 28.3695 2.97532C32.8385 4.28772 36.2748 7.70736 37.539 12.1067L37.9663 14.066L58.78 20.1844L57.6405 26.2289L50.0913 29.9073H50.1091Z" fill="#9C9EA1"/>
<path d="M34.6567 42.6435L39.642 42.7913L42.3483 40.1665L27.9265 25.4159L28.977 22.1811C29.8672 18.6506 28.8345 14.8982 26.1994 12.1995C21.9797 7.8926 14.9824 7.74468 10.5847 11.8667C6.18689 15.9888 6.02665 22.8466 10.2464 27.1535C12.9349 29.9077 16.8341 31.0537 20.6443 30.2219L25.7187 29.1498L26.3775 35.3606L34.443 35.7487L34.6567 42.625V42.6435ZM40.6569 45.3052L32.1996 45.065L31.986 38.1333L24.0985 37.745L23.5109 32.1812L21.2141 32.6803C16.5314 33.697 11.7598 32.2922 8.44809 28.891C3.26691 23.6044 3.46277 15.157 8.8576 10.0922C14.2702 5.02747 22.8877 5.21232 28.0511 10.4989C31.2738 13.7891 32.5379 18.4288 31.434 22.865L30.8109 24.7689L45.9271 40.222L40.6569 45.3052Z" fill="#DB334A"/>
<path d="M14.1256 18.1518C14.8378 18.8912 16.0485 18.9096 16.7963 18.2072C17.1524 17.8745 17.3661 17.4124 17.3839 16.9133C17.3839 16.4142 17.2058 15.9521 16.8675 15.6009C16.1554 14.8615 14.9446 14.843 14.1968 15.5455C13.449 16.2479 13.4134 17.4124 14.1434 18.1518M15.4966 21.2017C14.3215 21.2017 13.1642 20.7581 12.2917 19.8708C10.6003 18.1333 10.6715 15.3976 12.4342 13.734C14.1968 12.0888 16.9922 12.1443 18.7014 13.8634C19.5204 14.6952 19.9478 15.8042 19.93 16.9502C19.9122 18.1148 19.4136 19.1869 18.559 19.9817C17.7044 20.7766 16.6005 21.1832 15.4966 21.1832" fill="#DB334A"/>
<path d="M9.96075 17.4673C7.53931 17.4673 4.72616 14.3804 2.89227 11.0532C1.78837 9.03834 1.05838 6.98657 0.826917 5.23054C0.435213 2.32847 1.55691 1.27486 2.2691 0.90517C2.69642 0.664872 3.44421 0.461567 4.44128 0.757319C6.41761 1.33034 8.76783 3.73328 10.5661 7.00504L8.34052 8.18807C6.22176 4.34329 3.97836 2.97544 3.46202 3.10483C3.10592 3.43755 3.0169 6.04388 5.13567 9.87017C7.23663 13.6965 9.49783 15.1013 10.0142 14.9534L11.2071 17.1531C10.8154 17.3564 10.3881 17.4488 9.96075 17.4488" fill="#DB334A"/>
</g>
</svg>
