<svg width="43" height="43" viewBox="0 0 43 43" fill="none" xmlns="http://www.w3.org/2000/svg">
<path d="M7.92951 8.59693C7.92951 8.59693 7.94732 6.74847 8.05415 4.65972C8.08975 4.03124 8.21439 3.56913 8.42804 3.38428C8.6239 3.21792 9.0156 3.18094 9.53194 3.25488C11.8644 3.5876 13.2175 3.75401 14.268 3.8834C15.8704 4.06824 16.6716 4.17914 19.0753 4.62277C19.7697 4.75216 20.3038 5.01094 20.5175 6.98878C20.7489 9.05905 20.838 10.9814 20.838 10.9999L20.8914 12.2199L39.2125 14.9002V37.6915H39.1947C39.1947 38.8745 38.251 39.8173 37.1115 39.8173C35.972 39.8173 35.0283 38.8561 35.0283 37.6915C35.0283 37.6915 34.2983 42.1648 38.0195 42.6454H38.162C40.2985 42.1833 41.901 40.3164 42.0612 38.0243H42.1146V12.3308L23.6511 9.61355C23.5977 8.8372 23.5087 7.76513 23.384 6.63757C23.2594 5.56547 22.9033 2.33066 19.5916 1.70218C17.099 1.24007 16.2087 1.12919 14.6063 0.925865C13.5736 0.796473 12.2205 0.630081 9.92365 0.315844C8.55268 0.112514 7.43099 0.389825 6.57636 1.11072C5.70393 1.8501 5.2232 2.99613 5.15198 4.51187C5.04515 6.65607 5.02734 8.55994 5.02734 8.57843V11.6099L7.91172 12.072V8.59693H7.92951Z" fill="#9C9EA1"/>
<path d="M32.1444 39.2072L7.96555 35.7137C7.7697 35.7137 3.12266 35.1776 3.12266 30.3347V14.2716L32.1622 18.8558V39.1887L32.1444 39.2072ZM38.0378 42.6269C34.3166 42.1648 35.0466 37.6731 35.0466 37.6731V16.3234L7.94774 12.0535L5.06337 11.5914L0.238281 10.8335V30.3347C0.238281 36.3237 5.11679 38.3939 7.64506 38.6527L36.1148 42.7563V42.6638C36.4531 42.7378 36.7914 42.7747 37.1475 42.7747C37.5036 42.7747 37.8597 42.7193 38.198 42.6454H38.0556" fill="#DB334A"/>
</svg>
