<svg width="26" height="51" viewBox="0 0 26 51" fill="none" xmlns="http://www.w3.org/2000/svg">
<mask id="mask0_54169_59116" style="mask-type:luminance" maskUnits="userSpaceOnUse" x="0" y="0" width="26" height="51">
<path d="M25.499 0.35791H0.875V50.7988H25.499V0.35791Z" fill="white"/>
</mask>
<g mask="url(#mask0_54169_59116)">
<path d="M8.24609 44.2487H8.31731C9.31438 44.2487 10.3115 44.0053 11.2195 43.5749V43.5C10.2936 43.9866 9.27877 44.2299 8.24609 44.2487Z" fill="#ABABAB"/>
<path d="M23.4699 5.35543C22.9179 5.91693 22.2235 6.32869 21.4757 6.55329C20.3896 6.9089 19.268 7.07735 18.1463 7.05863C16.7041 7.09607 15.2797 6.7966 13.9443 6.19768C13.9087 6.17896 13.8731 6.16024 13.8375 6.14153C13.6239 6.02923 13.4102 5.89821 13.2143 5.74848C13.0719 5.63618 12.9295 5.50517 12.8048 5.37415C12.4131 4.99982 12.3775 4.34474 12.7336 3.93298C12.7514 3.89555 12.787 3.87683 12.8048 3.85812C13.3746 3.29662 14.0512 2.88486 14.799 2.66026C15.885 2.30465 17.0067 2.1362 18.1284 2.15492C19.5706 2.11748 20.995 2.41695 22.3126 3.01587C22.7399 3.22176 23.1316 3.5025 23.4521 3.85812C23.6479 4.064 23.7726 4.32603 23.7904 4.62549C23.7904 4.90624 23.6657 5.18699 23.4699 5.39287V5.35543ZM23.8082 10.334C23.2206 9.88482 22.5796 9.52921 21.8852 9.2859C20.6745 8.89285 19.4104 8.70568 18.1463 8.70568C17.2026 8.70568 16.2411 8.81798 15.3153 9.04258V8.48109C15.3153 8.33135 15.2797 8.20034 15.2263 8.06932C16.1699 8.31264 17.1492 8.42494 18.1284 8.44365C19.7665 8.48109 21.3867 8.14419 22.9001 7.45168C23.2028 7.30195 23.5055 7.11478 23.7904 6.89019C23.7904 7.80729 23.7904 8.96771 23.7904 10.3153L23.8082 10.334ZM23.4699 13.3474C22.9179 13.9089 22.2235 14.3206 21.4757 14.5265C20.3896 14.8821 19.268 15.0506 18.1463 15.0319C17.2026 15.0319 16.2411 14.9008 15.3153 14.6575V10.5025C16.2411 10.2592 17.1848 10.1281 18.1284 10.1281C19.5706 10.0907 20.995 10.3902 22.3126 10.9891C22.7399 11.195 23.1316 11.4757 23.4521 11.8313C23.6479 12.0372 23.7726 12.2992 23.7904 12.5987C23.7726 12.8795 23.6479 13.1415 23.4699 13.3474ZM13.6417 9.24846C13.0897 9.80996 12.3953 10.2217 11.6475 10.4463C10.5614 10.7832 9.43974 10.9517 8.30023 10.9517C6.85805 10.9891 5.43366 10.6896 4.0983 10.0907C3.67099 9.90354 3.27929 9.60408 2.9588 9.24846C2.5671 8.89285 2.51368 8.25649 2.86978 7.82601C2.90539 7.78858 2.92319 7.75114 2.9588 7.73243C3.51075 7.17093 4.20513 6.75917 4.95293 6.53457C6.03902 6.17896 7.16072 6.01051 8.28242 6.02923C9.72461 5.9918 11.149 6.29126 12.4843 6.89019C12.52 6.9089 12.5378 6.92762 12.5912 6.94634C12.787 7.09607 13.0007 7.22708 13.2321 7.3581C13.3746 7.4704 13.517 7.60141 13.6417 7.73243C14.0334 8.10676 14.0868 8.7244 13.7307 9.15488C13.6951 9.19231 13.6773 9.22975 13.6417 9.24846ZM13.9799 14.1896H13.9443C13.517 13.9837 13.1253 13.6843 12.8048 13.3474C12.4131 12.973 12.3775 12.318 12.7336 11.9062C12.7514 11.8875 12.787 11.8501 12.8048 11.8313C13.1431 11.4944 13.5526 11.2137 13.9799 11.0078V14.1896ZM21.8852 1.29396C20.6745 0.900912 19.4104 0.713747 18.1463 0.713747C16.5082 0.676314 14.888 1.01321 13.3746 1.70572C12.787 1.98647 12.2351 2.37951 11.79 2.88486C11.3805 3.35277 11.1312 3.9517 11.1312 4.58806C11.1312 4.71907 11.1668 4.86881 11.2024 4.99982C10.2587 4.75651 9.27949 4.64421 8.30023 4.62549C6.66219 4.58806 5.04195 4.92496 3.52855 5.61747C2.94099 5.89821 2.40686 6.29126 1.96174 6.7966C1.55223 7.26452 1.30296 7.86344 1.28516 8.4998V26.842H2.62051V10.7645C3.20807 11.2137 3.84904 11.5693 4.54342 11.8126C5.75414 12.2057 7.01829 12.3928 8.30023 12.3928C9.2973 12.3928 10.2765 12.2618 11.238 12.0185C11.1668 12.2057 11.1312 12.4115 11.1134 12.6174V26.8794H12.4487V14.8821C12.9117 15.2377 13.4102 15.5185 13.9621 15.7244V26.8607H15.1551L15.3153 16.1361C16.2411 16.3607 17.1848 16.473 18.1463 16.4917C19.7843 16.5292 21.4045 16.1923 22.9179 15.4998C23.2384 15.3313 23.5233 15.1442 23.8082 14.9383V33.0933H25.1079L25.1613 4.62549C25.1613 3.98913 24.9121 3.3902 24.4847 2.92229C23.7726 2.17363 22.8823 1.61214 21.9031 1.33139" fill="#9C9EA1"/>
<path d="M18.1647 2.52927H18.1291C17.043 2.52927 15.9569 2.679 14.9064 3.0159C14.212 3.20307 13.5889 3.5774 13.0725 4.10146C12.8055 4.32605 12.752 4.73782 12.9657 5.01856C13.0013 5.056 13.0369 5.09343 13.0725 5.13086C13.1794 5.24316 13.304 5.35546 13.4286 5.44904C13.6067 5.59878 13.8025 5.71107 13.9984 5.82337L14.0874 5.87952C15.3693 6.45973 16.7403 6.74048 18.1291 6.72176C19.233 6.72176 20.3191 6.57203 21.3695 6.23514C22.0639 6.04797 22.6871 5.67364 23.2034 5.14958C23.3459 5.01856 23.4349 4.8314 23.4527 4.62552C23.4349 4.43835 23.3459 4.25119 23.2034 4.12017C22.9007 3.80199 22.5625 3.53996 22.1707 3.37151C20.9066 2.81002 19.5357 2.52927 18.1469 2.54799M18.1291 7.45171C16.6335 7.48914 15.1557 7.17096 13.7847 6.55332L13.6957 6.49717C13.4464 6.36615 13.215 6.21642 12.9835 6.04797C12.8233 5.91696 12.663 5.78594 12.5206 5.61749C12.2713 5.33674 12.1111 4.98113 12.0933 4.6068C12.0933 4.23247 12.2535 3.87686 12.5028 3.59611C13.1081 2.97847 13.8559 2.52927 14.6749 2.28596C15.7966 1.93035 16.954 1.7619 18.1113 1.7619C19.6069 1.74318 21.0847 2.04264 22.4556 2.66029C22.9364 2.88489 23.3637 3.20307 23.7198 3.59611C23.969 3.85814 24.1115 4.21376 24.1471 4.58809C24.1471 4.96242 23.9868 5.33674 23.7198 5.61749C23.1144 6.23514 22.3844 6.68433 21.5654 6.92765C20.4437 7.28326 19.2864 7.47042 18.1291 7.45171ZM20.6752 8.61213C21.1203 8.70571 21.5476 8.81801 21.9927 8.96774C22.509 9.13619 22.9898 9.37951 23.4527 9.66025V7.62016C23.3281 7.69502 23.2034 7.76989 23.061 7.82604C22.2954 8.18165 21.4942 8.44368 20.6752 8.61213ZM24.1649 11.1201L23.5951 10.6709C23.0432 10.2405 22.4378 9.90357 21.7791 9.67897C19.7137 9.02389 17.5059 8.94903 15.4049 9.45437L14.9598 9.56667V8.51855C14.9598 8.51855 14.9598 8.40625 14.9242 8.3501C14.9242 8.29395 14.8886 8.2378 14.8886 8.18165L14.7818 7.60144L15.3159 7.73245C16.2418 7.95705 17.1854 8.08807 18.1469 8.08807C19.7315 8.1255 21.2983 7.7886 22.7583 7.13353C23.061 6.98379 23.3281 6.81535 23.5951 6.60947L24.1649 6.17899V11.1014V11.1201ZM8.30086 6.44102C7.21477 6.44102 6.11087 6.59075 5.0782 6.92765C4.38381 7.11481 3.76064 7.48914 3.2443 8.0132C3.10187 8.14422 3.01284 8.33138 2.99504 8.53726C3.01284 8.72443 3.10187 8.91159 3.2443 9.04261C3.52918 9.36079 3.88528 9.62282 4.27698 9.79127C6.6094 10.7271 9.15549 10.8581 11.5413 10.1282C12.2357 9.941 12.8589 9.56667 13.3752 9.06132C13.6423 8.85544 13.6957 8.44368 13.4998 8.16293C13.4642 8.1255 13.4286 8.06935 13.3752 8.03192C13.2684 7.9009 13.1437 7.7886 13.0191 7.69502C12.8054 7.58272 12.5918 7.45171 12.3959 7.30198C11.114 6.70305 9.70743 6.4223 8.30086 6.44102ZM8.30086 11.3635C6.80526 11.4009 5.32746 11.0827 3.9565 10.4651C3.47577 10.2405 3.04846 9.92228 2.69236 9.52924C2.15822 9.00518 2.12261 8.14422 2.62114 7.58272C2.63894 7.56401 2.67456 7.52657 2.69236 7.50786C3.29772 6.89021 4.04552 6.44102 4.84673 6.21642C5.96843 5.86081 7.12574 5.67364 8.28305 5.69236C9.77865 5.65492 11.2564 5.9731 12.6274 6.59075L12.7342 6.6469C12.9479 6.79663 13.1616 6.92765 13.3752 7.05866C13.5711 7.18968 13.7313 7.33941 13.8915 7.52657C14.1408 7.7886 14.3011 8.16293 14.3189 8.53726C14.3189 8.91159 14.1586 9.28592 13.8915 9.54795C13.2862 10.1656 12.5384 10.6148 11.7372 10.8394C10.6155 11.195 9.45817 11.3822 8.30086 11.3635ZM14.3367 14.8447L13.8203 14.564C13.3396 14.3394 12.8945 14.0212 12.5384 13.6281C12.2891 13.3474 12.1289 12.9918 12.1111 12.6175C12.1111 12.2431 12.2713 11.8875 12.5206 11.6068C12.8945 11.2137 13.3396 10.9143 13.8203 10.6897L14.3367 10.4276V14.8447ZM15.672 14.4142C17.5593 14.8634 19.5178 14.7886 21.3695 14.2084C22.0639 14.0212 22.6871 13.6469 23.2212 13.1415C23.3637 13.0105 23.4527 12.8233 23.4705 12.6175C23.4527 12.4303 23.3637 12.2431 23.2212 12.1121C22.9186 11.7939 22.5803 11.5319 22.1886 11.3635C20.9066 10.802 19.5357 10.5212 18.1469 10.5399C17.3101 10.5399 16.491 10.6335 15.6898 10.8394V14.4142H15.672ZM18.1291 15.4624C17.1498 15.4624 16.1706 15.3313 15.2091 15.088L14.942 15.0132V10.2592L15.2091 10.1843C16.1527 9.92228 17.132 9.79127 18.1113 9.79127C19.6069 9.75383 21.0847 10.072 22.4556 10.6897C22.9364 10.9143 23.3637 11.2324 23.7198 11.6255C23.969 11.8875 24.1115 12.2431 24.1471 12.6175C24.1293 13.0105 23.9868 13.3661 23.7198 13.6469C23.1144 14.2645 22.3666 14.7137 21.5476 14.9383C20.4437 15.2939 19.2864 15.4624 18.1113 15.4624H18.1291ZM24.1649 32.719H24.788V4.6068C24.7702 4.06402 24.5744 3.55868 24.2183 3.16563C23.5417 2.45441 22.7049 1.94906 21.7791 1.68703C20.6039 1.3127 19.3754 1.12554 18.1469 1.12554C16.5623 1.0881 14.9776 1.425 13.5354 2.08008C12.9835 2.34211 12.485 2.69772 12.0755 3.16563C11.7194 3.55868 11.5235 4.06402 11.5057 4.6068C11.5057 4.66295 11.5057 4.7191 11.5413 4.77525C11.5413 4.8314 11.5769 4.90627 11.5769 4.96242L11.666 5.52391L11.1318 5.39289C10.206 5.1683 9.26231 5.03728 8.30086 5.03728C6.71624 4.99985 5.14941 5.33675 3.68942 5.99182C3.13747 6.25385 2.63894 6.60947 2.22943 7.07738C1.87334 7.47042 1.65968 7.99448 1.64188 8.53726V26.5051H2.26504V10.0159L2.83479 10.4651C3.38674 10.8955 3.9921 11.2324 4.65088 11.4383C6.76965 12.1121 9.01305 12.187 11.1496 11.6255L11.755 11.4758L11.5769 12.1121C11.5235 12.2618 11.4879 12.4116 11.4701 12.5613V26.4864H12.0933V14.1335L12.663 14.5827C13.1081 14.9196 13.5711 15.1816 14.0874 15.3875L14.3189 15.4811L14.942 15.6682L15.3871 15.7805C16.2952 16.0051 17.2032 16.1174 18.1291 16.1174C19.7137 16.1549 21.2805 15.818 22.7405 15.1629C23.0432 15.0132 23.3103 14.8447 23.5773 14.6388L24.1471 14.2084V32.7002L24.1649 32.719ZM25.34 44.3606L24.6278 44.2296C24.6812 43.8927 24.7168 43.5371 24.7346 43.1815V33.4676H23.4527V15.6121C23.3281 15.687 23.2034 15.7618 23.061 15.818C21.512 16.5292 19.8205 16.8848 18.1291 16.8474C17.3101 16.8474 16.4732 16.7538 15.672 16.5854L13.6067 15.9677C13.3396 15.8554 13.0725 15.7244 12.8233 15.5559V27.235H10.7579V12.5052C8.65695 12.9544 6.48477 12.8421 4.43723 12.1683C3.92089 11.9998 3.44016 11.7565 2.99504 11.4758V27.235H0.929688V8.49983C0.929688 7.76989 1.21456 7.07738 1.69529 6.5346C2.17602 6.01054 2.74577 5.58006 3.36894 5.2806C5.68355 4.21376 8.28305 3.95173 10.7579 4.51322C10.7935 3.82071 11.0606 3.14692 11.5057 2.64157C11.9864 2.09879 12.5562 1.68703 13.1972 1.38757C14.7462 0.676341 16.4376 0.339444 18.1291 0.35816C19.4288 0.35816 20.7286 0.545326 21.9749 0.938372C23.0076 1.25655 23.969 1.83676 24.7168 2.64157C25.1976 3.16563 25.4646 3.87686 25.4824 4.6068V42.751C25.4824 43.2751 25.429 43.8178 25.3222 44.3419" fill="#9C9EA1"/>
<path d="M15.5283 26.4678H0.875V36.9303C0.875 41.1976 4.16888 44.6415 8.22836 44.6228C9.1364 44.6228 10.0444 44.4169 10.8813 44.0613C10.8813 44.1548 10.8991 44.2297 10.9169 44.3233C11.54 48.5158 15.279 51.3607 19.2673 50.7056C22.4009 50.1816 24.858 47.6174 25.3387 44.3233C25.4099 43.9303 25.4455 43.5559 25.4455 43.1629V32.6816H15.5105V26.4678H15.5283Z" fill="#DB334A"/>
</g>
</svg>
