<svg width="46" height="57" viewBox="0 0 46 57" fill="none" xmlns="http://www.w3.org/2000/svg">
<g clip-path="url(#clip0_54152_61373)">
<mask id="mask0_54152_61373" style="mask-type:luminance" maskUnits="userSpaceOnUse" x="0" y="0" width="46" height="57">
<path d="M45.4141 0H0.414062V57H45.4141V0Z" fill="white"/>
</mask>
<g mask="url(#mask0_54152_61373)">
<path d="M16.6898 0.943711C16.6141 0.966916 16.7655 0.920505 16.6898 0.943711V0.943711Z" fill="white"/>
<path d="M8.50621 19.9256C8.43807 15.5166 9.7478 10.1717 11.0197 7.32515C12.4202 4.0764 14.5627 2.09621 17.7121 1.21441C19.408 0.773511 21.1946 0.541457 23.0267 0.541457C24.8588 0.541457 26.6304 0.765776 28.3262 1.21441C31.4756 2.09621 33.6181 4.0764 35.0187 7.32515C36.283 10.1717 37.6003 15.5244 37.5321 19.9256C37.6003 24.3346 36.2905 29.6796 35.0187 32.5261C33.6181 35.7749 31.468 37.7551 28.3262 38.6369C26.6304 39.0778 24.8513 39.3098 23.0267 39.3098C21.2022 39.3098 19.408 39.0778 17.7121 38.6369C14.5627 37.7551 12.4202 35.7749 11.0197 32.5261C9.75537 29.6796 8.43807 24.3269 8.50621 19.9256ZM16.6901 38.8998C18.6887 39.5187 20.801 39.8513 23.004 39.8513H23.0949C25.2904 39.8513 27.3647 39.5264 29.3634 38.9076C31.5134 38.1418 33.55 36.6103 34.784 34.6997C36.8129 31.6598 38.6677 25.7811 38.7434 19.9334V19.9179C38.6677 14.0624 36.8129 8.19148 34.784 5.15158C33.55 3.24101 31.5589 1.70946 29.4088 0.943683C27.4101 0.324874 25.2449 0 23.0494 0C20.854 0 18.6963 0.33261 16.6901 0.943683C14.54 1.70946 12.5489 3.24101 11.3149 5.15158C9.27842 8.19148 7.43118 14.0702 7.35547 19.9179V19.9334C7.43875 25.7811 9.28599 31.6598 11.3149 34.6997C12.5489 36.6103 14.54 38.1341 16.6901 38.8998Z" fill="white"/>
<path d="M15.7452 19.1445H20.7191V20.6219H15.7452V19.1445ZM18.2435 16.3754C18.2132 17.234 18.2132 17.2262 18.1981 18.1235H17.7363V17.9843C17.7135 17.3036 17.6908 16.8549 17.6757 16.182C17.8801 16.1278 18.0845 16.2593 18.2435 16.3754ZM17.7211 14.4648C18.463 14.867 18.9476 15.7179 19.6516 16.2825C19.8409 16.4372 20.0075 16.6306 20.174 16.708C20.6282 16.3058 20.9992 15.9577 21.3096 15.3389C21.5292 14.9908 21.885 14.8361 22.2787 14.8283L22.5588 14.488L22.4074 13.6449C22.1197 13.2659 21.885 12.8714 21.6881 12.4459C21.7866 11.9586 21.8547 11.4017 22.3316 11.131C22.642 10.9299 22.8994 11.3862 23.1568 11.1C23.3461 11.0614 23.5051 11.1155 23.6414 11.2238C23.8382 11.5719 24.0653 11.9122 24.0805 12.3144C23.9593 12.7089 23.7776 13.0725 23.5959 13.436C23.5505 13.5211 23.4445 13.5443 23.3688 13.5985C23.4143 13.7609 23.4521 13.9465 23.5657 14.078C23.7095 14.109 23.8458 14.1322 24.0123 14.1012C24.1486 13.6758 24.6028 13.4824 24.9738 13.3664L25.799 12.8172C25.6703 12.1829 26.0716 11.6183 25.8444 10.9763C25.3751 10.7519 25.2388 10.2028 25.1328 9.78506C25.2085 9.51433 25.3372 9.23587 25.5265 9.01155L25.5567 9.04249C26.011 9.57621 26.4198 10.1254 26.5636 10.7906C26.6469 11.6415 26.7226 12.5078 26.6696 13.3974C26.223 13.8537 25.6854 14.1167 25.1782 14.4571L24.8073 15.1919C24.7618 15.9499 24.5423 16.6384 24.4287 17.3732C24.7467 18.2627 25.1252 19.4462 24.8527 20.2661C24.6407 20.7534 24.1865 21.0242 23.8533 21.2949L23.0054 21.9833C23.8534 22.9347 23.6489 24.0177 23.6868 25.4022C23.6792 25.7348 24.2622 26.0133 23.9518 26.3923C23.6944 26.8178 23.2856 27.1658 23.3537 27.7305C23.0963 28.1714 22.4755 28.272 22.1802 28.2642C22.1197 28.2642 22.0667 28.2178 22.0667 28.1559C22.1272 27.9239 22.3014 27.746 22.3922 27.5294C22.695 27.0576 22.5588 26.4078 22.9297 25.9669C22.6193 24.9381 22.1575 23.9867 22.0288 22.8883V22.8187C21.7714 23.3215 21.9077 23.8165 22.0364 24.211C21.2036 25.2862 20.3027 26.315 20.3027 27.7228C19.9469 28.3648 19.4397 28.9527 19.1747 29.6411C19.0838 29.7571 18.9173 29.6565 18.8189 29.5947C18.5842 29.4322 18.5236 29.2775 18.4403 29.0532C18.2435 28.1173 19.3488 27.7769 19.6138 26.9957C19.8182 25.6962 19.8788 24.3193 20.7721 23.306C20.8554 21.3877 21.4686 19.6937 22.801 18.3014C22.7405 17.8682 22.5663 17.497 22.4376 17.0947C22.2635 17.087 22.1424 17.0561 21.991 16.9091C21.8774 16.7389 21.832 16.6229 21.7941 16.414C21.3323 17.0019 20.757 17.6594 20.1286 18.0539C20.015 18.1235 19.8636 17.9843 19.6516 17.7832C18.8719 17.1566 18.7432 15.7411 17.5621 15.803C17.0246 15.6173 17.0473 14.9753 16.9641 14.488C17.1609 14.341 17.4864 14.3488 17.7287 14.4416M18.9021 12.825H18.4706L18.2813 14.4107C18.0921 14.2405 17.8801 14.1167 17.653 14.0394C17.5394 13.3664 17.5319 13.32 17.4713 12.825H17.0549V12.3531C17.7817 12.3531 18.1829 12.3531 18.9021 12.3531V12.825ZM17.0322 9.3983C17.1457 9.73865 17.3577 9.97844 17.6908 10.1409C17.653 9.96297 17.494 9.79279 17.4486 9.60715C17.3047 9.23587 17.3199 8.70988 17.5546 8.37727C17.7211 8.12201 17.9634 8.01372 18.2284 7.92863C18.1299 8.23804 18.0996 8.60159 18.2208 8.91873C18.3949 8.77949 18.4025 8.77176 18.5387 8.64026C18.5917 8.59385 18.6145 8.57065 18.6599 8.53971C18.9021 9.07343 19.1823 9.816 19.0233 10.4425L18.9173 10.7133C18.8794 10.2724 18.8113 10.0558 18.516 9.89335C18.4782 10.1486 18.6372 10.3343 18.675 10.6746C18.7962 11.1928 18.6977 11.7034 18.3873 12.0128H17.5773C16.9565 11.3321 16.9111 10.3188 17.0322 9.3983ZM24.9587 10.3729L25.2161 10.8293L24.5801 11.5409C24.406 11.3708 24.3909 11.3553 24.2243 11.1696C24.5499 10.8216 24.5877 10.7829 24.9662 10.3652M26.927 7.48773C27.1769 7.41812 27.5175 7.44906 27.7371 7.64243C28.0248 7.85128 28.1081 8.21483 28.0324 8.54744C27.8355 9.26681 27.0482 9.3983 26.4122 9.57621L26.064 9.0889C26.1927 8.47009 26.2608 7.75846 26.927 7.49547M28.2443 17.0329C28.2822 17.0329 28.479 16.9942 28.4866 16.8627V14.2714C28.8348 14.1863 29.1907 14.0703 29.5162 14.0007V15.5632C29.713 15.54 29.8115 15.509 30.0613 15.4781V17.5356L29.4329 17.6285L29.2361 18.4638H26.9952L26.6621 17.7213C26.117 17.6671 26.0791 17.6671 25.534 17.6285C26.0488 16.9555 26.5712 16.2825 26.927 15.54V14.488L27.9339 14.3565V16.8549C27.9339 16.94 28.0551 17.0329 28.1838 17.0329H28.2368H28.2443ZM30.4777 20.5987H25.5038V19.1136H30.4777V20.5987ZM29.3496 23.7933L28.0626 22.5325V21.7977C28.2141 21.6198 28.267 21.5579 28.4487 21.38L28.8121 21.8286V23.0662C29.3269 22.811 29.1982 22.0684 29.1982 21.4264C29.5011 21.6817 29.6525 21.8209 29.9477 22.1071C30.1143 22.8497 29.6752 23.2751 29.3496 23.7933ZM29.978 27.8775C29.7433 28.0631 29.5541 28.2256 29.2815 28.4421C29.3042 27.8775 29.3799 27.3051 29.115 26.9647C28.4639 26.2995 27.8734 25.7039 27.2829 25.116C27.0633 24.8763 26.8892 24.5282 27.033 24.211C27.1012 24.0563 27.192 23.8862 27.298 23.7469C27.298 24.0563 27.4343 24.2342 27.6084 24.4121C28.4033 25.2166 29.7887 26.3305 29.9023 26.81C30.0234 27.1272 29.9856 27.5139 29.9856 27.8852M27.8431 22.9115C28.4942 23.5768 29.0847 24.1724 29.6752 24.7602C29.8947 25 30.0689 25.3481 29.925 25.6652C29.8569 25.8199 29.766 25.9901 29.66 26.1293C29.66 25.8199 29.5313 25.642 29.3572 25.4641C28.5623 24.6597 27.1769 23.5458 27.0633 23.0662C26.9422 22.7491 26.98 22.3623 26.98 21.9911C27.2072 21.8054 27.404 21.643 27.6765 21.4187C27.6538 21.9833 27.5781 22.5635 27.8431 22.8961M28.8954 28.0708C28.744 28.241 28.6834 28.3106 28.5093 28.4885L28.1459 28.0399V26.8023C27.6311 27.0576 27.7598 27.8001 27.7598 28.4421C27.457 28.1869 27.3056 28.0476 27.0103 27.7614C26.8438 27.0189 27.2829 26.5934 27.6084 26.0752L28.8954 27.336V28.0708ZM26.7378 31.8997C26.6015 32.1395 26.3744 32.3948 26.1245 32.5108C25.6854 32.7583 25.0268 32.6964 24.6407 32.4025C24.2849 32.1395 24.0578 31.745 24.0502 31.3428C25.1555 31.3428 25.852 31.3428 26.8968 31.3428C26.8816 31.5826 26.8438 31.6677 26.7378 31.8997ZM24.8224 25.7503V21.3877C25.4356 21.38 25.6325 21.3877 26.2684 21.3877V25.7503H24.8224ZM24.3606 26.1835C24.8451 26.199 25.3372 26.6166 25.5265 27.0885C25.7233 27.5603 25.6476 28.1791 25.3448 28.5736C24.9738 29.0377 24.4514 29.2853 23.8458 29.177C23.4672 29.0919 23.0887 28.8521 22.8692 28.4885C23.1796 28.3803 23.6262 28.1946 23.7171 27.8852C23.6944 27.4056 24.0199 27.0189 24.2622 26.6321C24.3833 26.4619 24.3984 26.3614 24.3682 26.1835M23.6792 32.5185H22.7026V30.724H21.1733V30.0046H22.7026L23.1871 29.4245C23.4218 29.703 23.437 29.7262 23.6792 30.0046H25.2085V30.724H23.6717V32.5185H23.6792ZM21.7336 32.4102C21.3399 32.7042 20.6812 32.7661 20.2421 32.5185C19.9923 32.3948 19.7652 32.1472 19.6289 31.9075C19.5229 31.6754 19.4851 31.5903 19.4699 31.3505C20.5147 31.3505 21.2112 31.3505 22.3165 31.3505C22.3165 31.7528 22.0818 32.1472 21.726 32.4102M17.388 26.5857C17.2972 26.5857 17.1306 26.5702 17.0322 26.5393C16.8202 26.4852 16.5098 26.3614 16.3357 26.0675L16.2978 25.9978L16.2675 25.9128L16.2297 25.8199L16.2146 25.673V22.9115C16.1918 22.5635 16.0631 22.5557 15.7906 22.3469L15.889 22.3082L16.9868 21.9446C17.1457 22.1148 17.176 22.3391 17.1912 22.5712V24.7293C17.1912 24.8685 17.3047 24.9459 17.4637 24.9613C17.653 24.9613 17.7287 24.8917 17.7438 24.737C17.759 23.7701 17.7287 23.4994 17.7438 22.6176C17.7665 22.3237 18.0239 22.0297 18.2662 21.9601C18.569 21.8131 18.9324 21.8673 19.205 22.0065C19.6895 22.2463 19.6668 23.2209 19.6592 24.0099C19.4699 23.8784 19.4397 23.863 19.2428 23.8165C19.0763 23.7779 18.8946 23.8165 18.7583 23.9094C18.5993 24.0563 18.5842 24.2033 18.5842 24.4586C18.569 25.379 18.6674 26.0056 18.2208 26.3691C17.9331 26.578 17.6606 26.5934 17.3804 26.5934M18.6447 33.9882C20.0302 34.375 21.5367 34.5838 23.0433 34.5838H23.0887C24.5953 34.5838 26.1018 34.3672 27.4873 33.9882C28.9635 33.555 30.1749 32.5185 30.7881 31.103C32.1129 28.2023 32.9836 24.0177 32.9836 19.9103C32.9836 15.803 32.1129 11.6183 30.7881 8.71761C30.1749 7.30209 28.9635 6.25785 27.4873 5.83242C26.1018 5.44566 24.5953 5.23682 23.0887 5.23682H23.0433C21.5367 5.23682 20.0302 5.4534 18.6447 5.83242C17.1685 6.26559 15.9496 7.30209 15.3439 8.71761C14.0191 11.6183 13.1484 15.803 13.1484 19.9103C13.1484 24.0177 14.0191 28.2023 15.3439 31.103C15.9572 32.5185 17.1685 33.5628 18.6447 33.9882Z" fill="white"/>
<path d="M24.9492 10.396C25.1688 10.8137 24.9946 10.4966 25.2066 10.8524L24.9492 10.396Z" fill="white"/>
<path d="M24.3068 37.7319C24.5718 37.3452 24.9882 37.1518 25.3062 36.8037C25.556 36.5175 25.609 36.0766 25.45 35.7363C25.3289 35.4191 24.9882 35.2412 24.6929 35.1948C24.322 35.1716 23.9434 35.2489 23.6936 35.5197C23.5119 35.7517 23.4362 36.0457 23.4816 36.3551L24.0191 36.3241C24.0116 36.123 24.057 35.9374 24.2008 35.7904C24.3068 35.6976 24.4507 35.6666 24.6248 35.7053C24.7308 35.7285 24.8141 35.7981 24.8746 35.9296C24.9655 36.1385 24.9201 36.3937 24.7914 36.5252C24.3068 37.059 23.5346 37.4689 23.5422 38.2734L25.6923 38.1419C25.6847 37.9872 25.6771 37.817 25.662 37.6468L24.2993 37.7242L24.3068 37.7319Z" fill="white"/>
<path d="M18.0909 34.7847C17.841 34.9936 17.5458 34.9472 17.2581 34.8698L17.1445 35.2334C17.3641 35.3107 17.6366 35.3958 17.8637 35.4732V35.5041L17.2429 37.4147L17.8107 37.6081L18.6965 34.8234V34.8002L18.2423 34.6455C18.1969 34.6997 18.1817 34.7229 18.0909 34.7925" fill="white"/>
<path d="M28.8257 36.881C28.75 36.966 28.6213 37.0357 28.4851 37.0666C28.3412 37.1053 28.1974 37.1053 28.099 37.0666C27.9551 37.0125 27.8643 36.8964 27.8264 36.7727C27.7734 36.587 27.8264 36.3782 27.9854 36.2622C28.0535 36.2157 28.1519 36.1693 28.2579 36.1384C28.3715 36.1152 28.4775 36.1074 28.5608 36.1152C28.7576 36.1384 28.8939 36.2931 28.9317 36.4865C28.9544 36.618 28.9317 36.7649 28.8257 36.881ZM27.6296 35.535C27.5614 35.4113 27.5614 35.2102 27.6826 35.0864C27.7507 35.0091 27.8567 34.9549 27.9627 34.9317C28.0687 34.9008 28.1898 34.9008 28.2807 34.9317C28.4396 34.9781 28.5381 35.1638 28.5305 35.303C28.5305 35.4113 28.4775 35.4964 28.4169 35.5583C28.3488 35.6201 28.2504 35.6665 28.1444 35.6898C28.046 35.7207 27.94 35.7207 27.8491 35.6975C27.7583 35.6743 27.675 35.6201 27.6296 35.5273M28.9847 35.7362L28.8106 35.6975C28.9847 35.566 29.1513 35.3107 29.0907 35.0555C29.0529 34.7693 28.8485 34.5836 28.591 34.4831C28.3639 34.4135 28.1065 34.4212 27.8567 34.4908C27.6069 34.5527 27.3722 34.661 27.2056 34.8312C27.0239 35.04 26.9331 35.2953 27.0239 35.5737C27.0845 35.829 27.3495 35.9759 27.5614 36.0069L27.4252 36.1229C27.198 36.3395 27.1678 36.6102 27.2283 36.8887C27.2965 37.1981 27.5387 37.4379 27.834 37.523C28.0611 37.5849 28.3261 37.5771 28.5835 37.5152C28.8409 37.4456 29.0831 37.3219 29.2497 37.1672C29.4692 36.9506 29.5752 36.6257 29.492 36.3163C29.4238 36.0456 29.2724 35.8212 28.9696 35.7362" fill="white"/>
<path d="M21.3251 37.6933C21.2343 37.7552 21.0904 37.7784 20.9466 37.763C20.8027 37.763 20.6665 37.7165 20.5756 37.6469C20.4545 37.5541 20.3939 37.4149 20.4015 37.2834C20.4015 37.09 20.5151 36.9121 20.7043 36.8502C20.78 36.827 20.8936 36.8115 21.0072 36.8115C21.1207 36.8193 21.2267 36.8502 21.3024 36.8812C21.4841 36.9662 21.5674 37.1519 21.5522 37.353C21.5371 37.4845 21.4614 37.616 21.3403 37.6933M20.7725 35.6358C20.8633 35.5817 20.9769 35.5662 21.0904 35.5739C21.204 35.5739 21.3175 35.6126 21.3933 35.6745C21.5371 35.7673 21.5674 35.9684 21.522 36.0999C21.4917 36.2005 21.416 36.2701 21.3327 36.3088C21.2494 36.3474 21.1434 36.3629 21.0374 36.3552C20.9314 36.3552 20.8255 36.3242 20.7497 36.2778C20.674 36.2237 20.6059 36.1463 20.5908 36.0458C20.5605 35.9143 20.621 35.7132 20.7725 35.6358ZM21.8248 36.6646L21.6734 36.5795C21.8778 36.5099 22.1125 36.3165 22.1276 36.0535C22.173 35.7673 22.0292 35.5275 21.8172 35.3573C21.6279 35.2258 21.3705 35.1562 21.1131 35.1408C20.8557 35.1175 20.5983 35.1562 20.3939 35.2645C20.1592 35.4115 19.9927 35.6281 20.0003 35.9143C19.9851 36.1695 20.1895 36.3938 20.3939 36.4867L20.2274 36.5563C19.9473 36.6955 19.8413 36.943 19.8186 37.2215C19.7958 37.5386 19.9548 37.8403 20.2122 38.0182C20.4091 38.142 20.6665 38.2193 20.9314 38.2348C21.1964 38.2503 21.4614 38.2039 21.6734 38.1033C21.9459 37.9641 22.1427 37.6856 22.1579 37.3685C22.1655 37.09 22.0898 36.827 21.8324 36.6568" fill="white"/>
</g>
<path d="M34.7339 8.55246L32.0781 9.72217L32.3179 10.2904L34.9736 9.12072L34.7339 8.55246Z" fill="white"/>
<mask id="mask1_54152_61373" style="mask-type:luminance" maskUnits="userSpaceOnUse" x="0" y="0" width="46" height="57">
<path d="M45.4141 0H0.414062V57H45.4141V0Z" fill="white"/>
</mask>
<g mask="url(#mask1_54152_61373)">
<path d="M25.527 4.48621L26.7837 1.64743L26.1629 1.58554C25.8904 2.29717 25.5951 3.10163 25.3226 3.69723C25.1712 3.06295 25.0425 2.21209 24.9213 1.46178L24.293 1.3999L24.9743 4.4398L25.527 4.49394V4.48621Z" fill="white"/>
</g>
<path d="M15.3434 6.88404L14.927 6.64425L14.1851 8.00563L13.481 7.59567L14.1245 6.41994L13.6854 6.17241L13.0419 7.34815L12.4968 7.03874L13.2387 5.6851L12.8223 5.44531L11.7852 7.34041L14.3062 8.77914L15.3434 6.88404Z" fill="white"/>
<mask id="mask2_54152_61373" style="mask-type:luminance" maskUnits="userSpaceOnUse" x="0" y="0" width="46" height="57">
<path d="M45.4141 0H0.414062V57H45.4141V0Z" fill="white"/>
</mask>
<g mask="url(#mask2_54152_61373)">
<path d="M11.779 20.0496H10.969C10.9841 19.3921 10.8857 19.0053 11.2642 18.9357C11.3929 18.897 11.5671 18.9125 11.6579 19.013C11.8245 19.1755 11.7715 19.4462 11.779 20.0496ZM10.5299 20.0496H9.81825C9.84096 19.3689 9.7274 19.013 10.1362 18.9666C10.3785 18.9512 10.439 19.0053 10.4996 19.1523C10.545 19.307 10.5299 19.4617 10.5299 20.0496ZM12.1576 18.7114C12.0213 18.3942 11.6882 18.2705 11.3399 18.2859C11.0447 18.3169 10.8251 18.5257 10.704 18.8274C10.6586 18.6495 10.492 18.4174 10.2195 18.3865C9.93181 18.3478 9.65169 18.4329 9.51542 18.6804C9.32615 18.928 9.40943 20.0263 9.38672 20.6606H12.256V20.444C12.2409 19.276 12.309 19.1368 12.1576 18.7114Z" fill="white"/>
</g>
<path d="M32.8984 12.2292L33.0423 12.8248L35.3665 12.2137L35.5785 13.0646L36.0403 12.9485L35.4573 10.6357L34.9955 10.7595L35.2151 11.6181L32.8984 12.2292Z" fill="white"/>
<mask id="mask3_54152_61373" style="mask-type:luminance" maskUnits="userSpaceOnUse" x="0" y="0" width="46" height="57">
<path d="M45.4141 0H0.414062V57H45.4141V0Z" fill="white"/>
</mask>
<g mask="url(#mask3_54152_61373)">
<path d="M19.4936 4.45502C19.7586 4.61746 20.0917 4.65614 20.4097 4.59426L20.3415 4.13789C20.2507 4.15336 20.1523 4.16109 20.069 4.13789C19.91 4.10694 19.7586 3.99865 19.7283 3.82848L19.3952 1.7168L18.8047 1.80962L19.1378 3.9213C19.1832 4.13789 19.2589 4.30806 19.4936 4.44729" fill="white"/>
<path d="M21.2486 4.16905C21.4227 3.96793 21.4454 3.77456 21.4227 3.55797L21.0896 1.44629L20.4991 1.53911L20.8322 3.65079C20.8549 3.81323 20.7413 3.97567 20.6051 4.05302C20.5294 4.10717 20.4385 4.13037 20.3477 4.14584L20.4234 4.59448C20.7413 4.54033 21.0517 4.40883 21.2486 4.16131" fill="white"/>
</g>
<path d="M35.8079 15.3308L34.6647 15.8646L34.5663 15.1375L35.8154 15.3308H35.8079ZM33.408 14.9209L34.0591 15.0446L34.2029 16.1043L33.6124 16.406L33.6957 17.0016L36.4211 15.5706L36.3378 14.9441L33.3398 14.333L33.4231 14.9286L33.408 14.9209Z" fill="white"/>
<mask id="mask4_54152_61373" style="mask-type:luminance" maskUnits="userSpaceOnUse" x="0" y="0" width="46" height="57">
<path d="M45.4141 0H0.414062V57H45.4141V0Z" fill="white"/>
</mask>
<g mask="url(#mask4_54152_61373)">
<path d="M35.5182 18.3322C35.3592 18.4173 35.2002 18.5952 35.1472 18.7731C34.9807 19.183 35.0488 19.7941 34.7157 20.0339C34.6173 20.088 34.4356 20.0958 34.3599 20.0107C34.1479 19.8405 34.1176 19.3687 34.2387 19.067C34.322 18.8891 34.4962 18.7963 34.6778 18.7653L34.64 18.2007C34.3447 18.2007 34.1025 18.3477 33.9208 18.5874C33.6255 19.0515 33.6407 19.7941 33.9056 20.266C34.0949 20.5676 34.4204 20.7301 34.7838 20.6682C35.6242 20.4825 35.3971 19.4383 35.7226 18.951C35.7907 18.8427 35.9194 18.8504 36.0179 18.8814C36.2147 18.9587 36.2753 19.1753 36.2828 19.3842C36.298 19.593 36.245 19.856 36.0557 19.9643L36.0103 19.9798L35.9421 19.9952H35.8437L35.8816 20.5754C36.2147 20.5522 36.5402 20.3278 36.6462 20.0262C36.8203 19.5853 36.8052 18.8582 36.4191 18.4869C36.1768 18.2471 35.7983 18.2007 35.503 18.3244" fill="white"/>
<path d="M11.7162 15.9886L9.64944 15.656L9.55859 16.2594L11.6254 16.592C11.8374 16.6152 12.0266 16.592 12.2235 16.4141C12.4582 16.2052 12.5944 15.8958 12.6399 15.5632L12.2008 15.4858C12.1856 15.5787 12.1629 15.6715 12.1099 15.7566C12.0342 15.8958 11.8828 16.0118 11.7162 15.9886Z" fill="white"/>
<path d="M11.9897 14.2559L9.92288 13.9233L9.83203 14.5267L11.8988 14.8593C12.0502 14.8825 12.1714 15.0449 12.2016 15.2074C12.2244 15.3002 12.2244 15.393 12.2016 15.4936L12.6483 15.5632C12.7013 15.2383 12.671 14.898 12.5045 14.6272C12.3682 14.3952 12.2016 14.3101 11.9897 14.2637" fill="white"/>
</g>
<path d="M15.8808 3.59686L16.812 4.46319L16.1988 4.84995L15.8808 3.60459V3.59686ZM16.4637 6.01021L16.3199 5.34499L17.2132 4.78807L17.7205 5.22897L18.2201 4.91183L15.8581 2.93164L15.3281 3.26425L15.9641 6.31962L16.4713 6.01021H16.4637Z" fill="white"/>
<path d="M29.5448 5.21352L28.1443 4.61018L28.4622 3.85214L29.6811 4.37039L29.8704 3.89855L28.6515 3.3803L28.8938 2.79243L30.2943 3.38803L30.476 2.9394L28.5228 2.104L27.4023 4.82676L29.3631 5.66215L29.5448 5.21352Z" fill="white"/>
<mask id="mask5_54152_61373" style="mask-type:luminance" maskUnits="userSpaceOnUse" x="0" y="0" width="46" height="57">
<path d="M45.4141 0H0.414062V57H45.4141V0Z" fill="white"/>
</mask>
<g mask="url(#mask5_54152_61373)">
<path d="M11.7109 11.4941L10.9841 11.2776C11.1431 10.7748 11.2112 10.2643 11.5594 10.2952C11.7033 10.3184 11.7941 10.3571 11.8774 10.4576C12.0137 10.6278 11.8396 11.0068 11.7109 11.4941ZM13.3007 11.9815L12.2105 11.6488L12.1651 11.6334C12.2408 11.3626 12.3468 11.0146 12.3998 10.9449C12.5966 10.4808 13.331 10.9372 13.6187 10.8908L13.7852 10.3029C13.2931 10.3339 12.6269 9.8775 12.2787 10.4344C12.2787 10.2333 12.2635 10.0631 12.1045 9.90071C11.9455 9.73054 11.6957 9.65319 11.4459 9.67639C10.8024 9.77695 10.7191 10.535 10.3633 11.7262L13.1341 12.5693L13.3083 11.9815H13.3007Z" fill="white"/>
<path d="M32.4702 5.3448C32.7806 5.77023 33.1364 6.12605 32.9093 6.39677C32.8109 6.49733 32.72 6.55148 32.5913 6.55921C32.3793 6.56695 32.1825 6.2034 31.8721 5.80891L32.4702 5.33706V5.3448ZM30.5472 6.84541L31.4557 6.14152L31.4936 6.11058C31.6601 6.33489 31.8721 6.62109 31.9024 6.70618C32.1598 7.14708 31.3573 7.47969 31.2286 7.75042L31.592 8.23773C31.857 7.8123 32.6064 7.53383 32.3718 6.91503C32.5307 7.03105 32.6746 7.12387 32.9017 7.0852C33.1288 7.05426 33.3332 6.89182 33.4695 6.67524C33.7648 6.08737 33.2197 5.56912 32.4853 4.57129L30.1914 6.3581L30.5548 6.84541H30.5472Z" fill="white"/>
<path d="M20.3426 44.3145C20.0928 44.2913 19.631 44.3222 19.207 44.3145V45.4438C20.0322 45.4438 20.1534 45.4438 20.4108 45.4206C20.6682 45.3974 20.8347 45.1576 20.8272 44.8404C20.8272 44.5156 20.5925 44.3454 20.3351 44.3145" fill="white"/>
</g>
<path d="M33.0961 44.4458H33.0885V44.4535L32.5586 46.2868H33.6261L33.0961 44.4535V44.4458Z" fill="white"/>
<mask id="mask6_54152_61373" style="mask-type:luminance" maskUnits="userSpaceOnUse" x="0" y="0" width="46" height="57">
<path d="M45.4141 0H0.414062V57H45.4141V0Z" fill="white"/>
</mask>
<g mask="url(#mask6_54152_61373)">
<path d="M41.2578 46.7821C41.2426 47.107 41.1669 47.3855 40.8565 47.6407C40.5007 47.9501 40.0238 48.0739 39.5392 48.0739H39.5241C39.0396 48.0739 38.5626 47.9501 38.2068 47.6407C37.904 47.3855 37.8207 47.107 37.8055 46.7821V43.5875H38.6913V46.7821C38.6989 47.0451 38.8957 47.2385 39.1153 47.3236C39.2364 47.3777 39.3802 47.4009 39.5241 47.3932C39.6604 47.3932 39.8042 47.3777 39.9253 47.3236C40.1449 47.2385 40.3493 47.0219 40.3493 46.7821V43.5875H41.2351V46.7821H41.2578ZM34.1792 47.9733L33.8688 47.0142H32.3168L32.0064 47.9733H31.1282L32.6348 43.5798H33.5584L35.065 47.9733H34.1868H34.1792ZM27.9637 45.2506V46.0086H25.9953V47.2385H28.2514V47.9656H25.0944V43.572H28.2514V44.2991H25.9953V45.2428H27.9637V45.2506ZM20.923 47.9733C20.7186 47.9733 21.0214 46.2329 20.287 46.1865C19.8707 46.1633 19.6133 46.1788 19.2044 46.1865V47.9811H18.3111V43.5952C19.1363 43.5952 19.6057 43.603 20.34 43.603C21.0063 43.6339 21.6649 43.9124 21.7103 44.6472C21.7633 45.4981 21.2864 45.6915 20.8473 45.8384C21.8693 46.0627 21.4908 47.2849 21.7633 47.9811H20.923V47.9733ZM14.6318 46.7898C14.6166 47.1147 14.5409 47.3932 14.2381 47.6484C13.8823 47.9578 13.4053 48.0816 12.9208 48.0816H12.9132C12.4287 48.0816 11.9517 47.9578 11.5959 47.6484C11.2931 47.3932 11.2098 47.1147 11.1947 46.7898V43.5952H12.0804V46.7898C12.088 47.0528 12.2849 47.2462 12.5044 47.3313C12.6255 47.3854 12.7694 47.4087 12.9132 47.4009C13.0571 47.4009 13.1933 47.3854 13.3145 47.3313C13.534 47.2462 13.7384 47.0296 13.7384 46.7898V43.5952H14.6242V46.7898H14.6318ZM6.60686 47.9733H4.57793V43.5875C5.44098 43.5875 5.94064 43.5875 6.65229 43.5875C7.3185 43.5875 7.84088 43.9511 7.8863 44.624C7.93173 45.0881 7.78789 45.4904 7.2428 45.6296C7.72732 45.7611 8.03015 46.2174 8.03772 46.7976C8.03772 47.2926 7.65918 47.9733 6.60686 47.9733ZM0.414063 49.18H45.4141V42.4272H0.414062L0.414063 49.18Z" fill="white"/>
<path d="M5.19872 51.3924C5.49398 52.483 5.81951 53.7284 6.12991 54.6411C6.44031 53.7284 6.75828 52.483 7.05353 51.3924H7.97715L6.53116 55.7782H5.70595L4.24482 51.3924H5.18358H5.19872ZM10.5587 51.3924H13.7157V52.1195H11.4597V53.0709H13.428V53.8289H11.4597V55.0588H13.7157V55.7859H10.5587V51.3924ZM16.7515 51.3924C17.5767 51.3924 18.0461 51.4001 18.7881 51.4001C19.4543 51.4388 20.1129 51.7095 20.1583 52.4443C20.2113 53.2952 19.7344 53.4963 19.2953 53.6355C20.3173 53.8599 19.9388 55.082 20.2113 55.7782H19.3634C19.159 55.7782 19.4618 54.0378 18.7275 53.9914C18.3111 53.9681 18.0537 53.9914 17.6449 53.9914V55.7782H16.7515V51.3924ZM23.3683 51.4001H24.2692V55.7936H23.3683V51.4001ZM26.76 51.431H30.2273V52.1504H28.9403V55.7936H28.047V52.1504H26.7524V51.431H26.76ZM33.46 51.4001H34.3836L35.8902 55.7859H35.012L34.7016 54.8267H33.1496L32.8392 55.7859H31.961L33.4676 51.4001H33.46ZM38.0705 52.7073C38.0705 51.9183 38.6005 51.2454 39.7285 51.2454C41.3032 51.2454 41.447 52.336 41.447 52.6222L40.6218 52.6532C40.6218 52.2974 40.4099 51.9648 39.8269 51.9648C39.1986 51.9648 38.9487 52.2432 38.9487 52.5526C38.9487 53.3416 41.553 52.9394 41.553 54.4168C41.553 55.3991 40.8035 55.8942 39.7512 55.8942C38.4415 55.8942 37.9418 55.0588 37.9418 54.4168L38.767 54.3858C38.767 54.7339 39.085 55.1903 39.6831 55.1903C40.1449 55.1903 40.6597 55.0897 40.6597 54.5715C40.6597 53.6355 38.0705 54.1847 38.0705 52.7073ZM0.414062 57.0003H45.4141V50.2476H0.414062V57.0003Z" fill="white"/>
<path d="M18.8561 53.2176C19.1135 53.1944 19.28 52.9546 19.28 52.6375C19.28 52.3126 19.0453 52.1347 18.7879 52.1192C18.5305 52.096 18.0763 52.1192 17.6523 52.1192V53.2485C18.4775 53.2485 18.5987 53.2485 18.8561 53.2253" fill="white"/>
</g>
<path d="M33.9203 52.2582V52.2505V52.2582V52.2505V52.2582L33.3828 54.0992H34.4578L33.9203 52.2582Z" fill="white"/>
<mask id="mask7_54152_61373" style="mask-type:luminance" maskUnits="userSpaceOnUse" x="0" y="0" width="46" height="57">
<path d="M45.4141 0H0.414062V57H45.4141V0Z" fill="white"/>
</mask>
<g mask="url(#mask7_54152_61373)">
<path d="M6.60826 46.0315C6.1843 46.0083 5.79062 46.0083 5.47266 46.0083V47.2382C6.35085 47.2304 6.38114 47.2382 6.69153 47.1995C6.99436 47.1608 7.14577 46.8824 7.14577 46.6116C7.14577 46.3409 6.94893 46.047 6.61583 46.0238" fill="white"/>
<path d="M6.54769 45.3278C6.86566 45.3278 7.05492 45.1112 7.05492 44.7554C7.05492 44.3996 6.79752 44.2681 6.51741 44.2681H5.47266V45.3278H6.54769Z" fill="white"/>
</g>
</g>
<defs>
<clipPath id="clip0_54152_61373">
<rect width="45" height="57" fill="white" transform="translate(0.414062)"/>
</clipPath>
</defs>
</svg>
