<svg width="508" height="106" viewBox="0 0 508 106" fill="none" xmlns="http://www.w3.org/2000/svg">
<g clip-path="url(#clip0_54158_32763)">
<g filter="url(#filter0_dd_54158_32763)">
<path d="M504.688 2.66947L500.971 12.8653L497.366 2.66947H493.942V15.8168H496.127V7.991L496.014 5.64326H496.15L499.845 15.8168H501.76L505.635 5.66563H505.792L505.68 8.16987V15.8168H508V2.66947H504.688Z" fill="white"/>
<path d="M482.722 4.59238H486.552V15.8168H488.827V4.59238H492.725V2.66947H482.722V4.59238Z" fill="white"/>
<path d="M316.293 27.0257H334.699V85.4473H347.099V27.0257H365.523V23.1127H316.293V27.0257Z" fill="white"/>
<path d="M283.646 83.2165C279.408 83.2165 275.41 82.0645 272.591 78.9195C268.298 74.2018 268.483 61.3473 274.065 57.5988C278.469 54.6548 286.594 53.9234 293.89 53.9234C294.24 53.9234 294.443 54.0514 297.648 53.9234V55.4594C297.648 69.9962 297.777 80.0531 297.777 80.0531C297.777 80.0531 287.902 83.2165 283.646 83.2165ZM301.886 29.5308C297.188 25.4898 290.795 24.3012 283.793 23.8989L283.72 24.6852C290.26 25.9469 297.593 31.9445 297.593 50.4675C287.404 51.0892 274.378 49.023 266.548 53.5029C257.649 58.5862 257.151 73.7081 262.31 80.8028C266.548 86.6359 275.171 87.8427 283.167 87.8427C291.163 87.8427 309.901 83.0154 309.901 83.0154V55.9714C309.901 42.4951 309.403 36.0221 301.868 29.5491" fill="white"/>
<path d="M417.647 58.8604C417.555 70.8739 416.873 75.1892 413.151 79.3034C410.387 82.3937 406.371 83.3079 402.133 83.3079C397.896 83.3079 393.916 82.3937 391.134 79.3034C387.431 75.2075 386.73 70.8739 386.712 58.8604V23.0761H375.381V58.8787C375.436 70.1425 375.989 75.8841 382.548 81.388C387.744 85.6484 394.524 88.0072 402.152 88.0072C409.779 88.0072 416.578 85.6667 421.719 81.388C428.315 75.8841 428.849 70.1425 428.904 58.8787V23.0761H417.665V58.8787L417.647 58.8604Z" fill="white"/>
<path d="M119.483 84.021C114.895 84.021 110.529 83.1433 107.525 79.852C103.14 75.2441 102.625 70.4168 102.625 55.4411C102.625 40.4654 102.403 35.5284 106.788 30.9205C109.792 27.7022 114.343 27.4828 118.93 27.4828C130.059 27.4828 136.323 35.7112 136.323 56.0628C136.323 74.8784 130.151 84.0027 119.501 84.0027M119.501 23.0761C111.21 23.0761 103.122 24.7217 97.4657 29.1468C89.6353 35.3272 90.3723 42.4036 90.3723 56.2274V105.963H102.625V82.8691C107.728 85.6301 113.863 87.477 119.501 87.7695C143.232 88.8118 149.681 68.2774 149.681 56.1176C149.681 32.5113 133.836 23.0761 119.501 23.0761Z" fill="white"/>
<path d="M172.196 51.0526C172.362 35.1627 177.208 27.6474 188.023 27.6474C192.334 27.6474 196.406 29.1285 199.243 32.2188C202.965 36.2598 203.702 39.7157 203.831 51.0526H172.196ZM188.023 23.0578C171.938 23.0578 159.483 32.4747 159.483 54.9108C159.483 77.3469 171.515 86.3982 187.839 87.7147C196.83 88.4461 205.029 86.965 210.814 84.3136L208.769 80.3823C199.944 85.2462 185.701 85.3559 179.05 79.0475C175.163 75.3721 172.196 68.3505 172.196 54.9108H215.402V51.0343C215.328 30.6096 202.007 23.0395 188.041 23.0395" fill="white"/>
<path d="M272 27.3C267.431 24.0269 261.277 23.1127 256.137 23.1127C247.698 23.1127 240.292 25.4166 234.599 29.732C226.713 35.7478 226.713 41.9831 226.713 55.4594V85.4473H239.039V39.5877C239.039 32.6028 245.543 27.2269 253.042 26.9526C260.338 26.66 264.096 27.556 268.555 31.8348L272 27.3Z" fill="white"/>
<path d="M463.762 49.1509C451.768 45.2379 449.557 39.7523 449.999 35.5101C450.368 32.0542 453.426 26.8063 461.588 26.5503C468.829 26.3309 474.522 29.2565 477.231 31.4873L480.289 27.8668C474.504 23.9538 467.282 22.7652 460.464 22.8932C439.921 23.2406 428.922 48.5293 457.903 58.6593C481.303 66.8329 473.712 83.7833 458.254 83.4176C453.297 83.2896 447.125 81.5342 441.635 76.8532L438.134 80.364C442.611 84.1856 448.636 87.9707 460.262 87.9707C485.982 87.9707 495.692 59.5004 463.762 49.1327" fill="white"/>
<path d="M56.0657 77.5663C52.0123 81.9 46.1718 83.1434 40.018 83.1434V83.1799L39.9811 83.1434C33.8274 83.1434 27.9868 81.8817 23.9334 77.5663C18.0007 71.2762 15.6792 64.6569 15.6792 44.2688C15.6792 23.8806 18.0007 17.3162 23.9334 11.0078C27.9868 6.63757 33.8274 5.3576 39.9811 5.3576H40.018C46.1718 5.3576 52.0123 6.61929 56.0657 11.0078C61.98 17.3345 64.3199 23.8441 64.3199 44.2688C64.3199 64.6935 61.9984 71.2579 56.0657 77.5663ZM40.018 0V0.0365706L39.9811 0C13.8184 0 0 16.4751 0 44.2688C0 77.932 19.7326 88.5375 39.9811 88.5375V88.501L40.018 88.5375C60.2665 88.5375 79.9991 77.9138 79.9991 44.2505C79.9991 16.4751 66.1992 0 40.018 0Z" fill="white"/>
</g>
</g>
<defs>
<filter id="filter0_dd_54158_32763" x="-6" y="-4" width="520" height="117.963" filterUnits="userSpaceOnUse" color-interpolation-filters="sRGB">
<feFlood flood-opacity="0" result="BackgroundImageFix"/>
<feColorMatrix in="SourceAlpha" type="matrix" values="0 0 0 0 0 0 0 0 0 0 0 0 0 0 0 0 0 0 127 0" result="hardAlpha"/>
<feOffset dy="1"/>
<feGaussianBlur stdDeviation="1"/>
<feColorMatrix type="matrix" values="0 0 0 0 0 0 0 0 0 0 0 0 0 0 0 0 0 0 0.07 0"/>
<feBlend mode="normal" in2="BackgroundImageFix" result="effect1_dropShadow_54158_32763"/>
<feColorMatrix in="SourceAlpha" type="matrix" values="0 0 0 0 0 0 0 0 0 0 0 0 0 0 0 0 0 0 127 0" result="hardAlpha"/>
<feOffset dy="2"/>
<feGaussianBlur stdDeviation="3"/>
<feColorMatrix type="matrix" values="0 0 0 0 0 0 0 0 0 0 0 0 0 0 0 0 0 0 0.07 0"/>
<feBlend mode="normal" in2="effect1_dropShadow_54158_32763" result="effect2_dropShadow_54158_32763"/>
<feBlend mode="normal" in="SourceGraphic" in2="effect2_dropShadow_54158_32763" result="shape"/>
</filter>
<clipPath id="clip0_54158_32763">
<rect width="508" height="106" fill="white"/>
</clipPath>
</defs>
</svg>
